<mxfile host="app.diagrams.net" agent="Mozilla/5.0 (Windows NT 10.0; Win64; x64) AppleWebKit/537.36 (KHTML, like Gecko) Chrome/135.0.0.0 Safari/537.36" version="26.2.14">
  <diagram name="PÃ¡gina-1" id="5x9XDhcGxlXRKqn8Yzqd">
    <mxGraphModel dx="1026" dy="516" grid="1" gridSize="10" guides="1" tooltips="1" connect="1" arrows="1" fold="1" page="1" pageScale="1" pageWidth="827" pageHeight="1169" math="0" shadow="0">
      <root>
        <mxCell id="0" />
        <mxCell id="1" parent="0" />
        <mxCell id="n366VSGjI_HjgEOfrgP5-9" style="edgeStyle=orthogonalEdgeStyle;rounded=0;orthogonalLoop=1;jettySize=auto;html=1;exitX=0.5;exitY=1;exitDx=0;exitDy=0;exitPerimeter=0;entryX=0.5;entryY=0;entryDx=0;entryDy=0;" edge="1" parent="1" source="n366VSGjI_HjgEOfrgP5-2" target="n366VSGjI_HjgEOfrgP5-4">
          <mxGeometry relative="1" as="geometry" />
        </mxCell>
        <mxCell id="n366VSGjI_HjgEOfrgP5-2" value="INICIO" style="strokeWidth=2;html=1;shape=mxgraph.flowchart.start_2;whiteSpace=wrap;" vertex="1" parent="1">
          <mxGeometry x="363" y="40" width="100" height="100" as="geometry" />
        </mxCell>
        <mxCell id="n366VSGjI_HjgEOfrgP5-3" value="FIN" style="strokeWidth=2;html=1;shape=mxgraph.flowchart.start_2;whiteSpace=wrap;" vertex="1" parent="1">
          <mxGeometry x="363" y="510" width="100" height="100" as="geometry" />
        </mxCell>
        <mxCell id="n366VSGjI_HjgEOfrgP5-10" style="edgeStyle=orthogonalEdgeStyle;rounded=0;orthogonalLoop=1;jettySize=auto;html=1;exitX=0.5;exitY=1;exitDx=0;exitDy=0;entryX=0.5;entryY=0;entryDx=0;entryDy=0;" edge="1" parent="1" source="n366VSGjI_HjgEOfrgP5-4" target="n366VSGjI_HjgEOfrgP5-6">
          <mxGeometry relative="1" as="geometry" />
        </mxCell>
        <mxCell id="n366VSGjI_HjgEOfrgP5-4" value="&lt;span style=&quot;color: rgb(26, 26, 26);&quot;&gt;Mostrar mensaje:&amp;nbsp;&lt;/span&gt;&lt;div&gt;&lt;span style=&quot;color: rgb(26, 26, 26);&quot;&gt;&quot;Por favor, ingrese el&lt;/span&gt;&lt;/div&gt;&lt;div&gt;&lt;span style=&quot;color: rgb(26, 26, 26);&quot;&gt;&amp;nbsp;radio del circulo: &quot;&lt;/span&gt;&lt;/div&gt;" style="shape=parallelogram;html=1;strokeWidth=2;perimeter=parallelogramPerimeter;whiteSpace=wrap;rounded=1;arcSize=12;size=0.23;flipH=1;flipV=1;container=1;" vertex="1" parent="1">
          <mxGeometry x="308" y="160" width="210" height="80" as="geometry" />
        </mxCell>
        <mxCell id="n366VSGjI_HjgEOfrgP5-11" style="edgeStyle=orthogonalEdgeStyle;rounded=0;orthogonalLoop=1;jettySize=auto;html=1;exitX=0.5;exitY=1;exitDx=0;exitDy=0;entryX=0.5;entryY=0;entryDx=0;entryDy=0;" edge="1" parent="1" source="n366VSGjI_HjgEOfrgP5-6" target="n366VSGjI_HjgEOfrgP5-8">
          <mxGeometry relative="1" as="geometry" />
        </mxCell>
        <mxCell id="n366VSGjI_HjgEOfrgP5-6" value="&lt;span style=&quot;color: rgb(26, 26, 26);&quot;&gt;Definir y asignar a la variable area el resultado de PI*radio^2.&lt;/span&gt;" style="rounded=1;whiteSpace=wrap;html=1;absoluteArcSize=1;arcSize=14;strokeWidth=2;" vertex="1" parent="1">
          <mxGeometry x="323" y="270" width="180" height="100" as="geometry" />
        </mxCell>
        <mxCell id="n366VSGjI_HjgEOfrgP5-8" value="&lt;span style=&quot;color: rgb(26, 26, 26);&quot;&gt;Mostrar mensaje:&amp;nbsp;&lt;/span&gt;&lt;div&gt;&lt;span style=&quot;color: rgb(26, 26, 26);&quot;&gt;&quot;El area del circulo con&amp;nbsp;&lt;/span&gt;&lt;/div&gt;&lt;div&gt;&lt;span style=&quot;color: rgb(26, 26, 26);&quot;&gt;radio&quot;, radio, &quot;es:&quot;, area&lt;/span&gt;&lt;/div&gt;" style="shape=parallelogram;html=1;strokeWidth=2;perimeter=parallelogramPerimeter;whiteSpace=wrap;rounded=1;arcSize=12;size=0.23;flipH=1;flipV=1;container=1;" vertex="1" parent="1">
          <mxGeometry x="308" y="400" width="210" height="80" as="geometry" />
        </mxCell>
        <mxCell id="n366VSGjI_HjgEOfrgP5-12" style="edgeStyle=orthogonalEdgeStyle;rounded=0;orthogonalLoop=1;jettySize=auto;html=1;exitX=0.5;exitY=1;exitDx=0;exitDy=0;entryX=0.5;entryY=0;entryDx=0;entryDy=0;entryPerimeter=0;" edge="1" parent="1" source="n366VSGjI_HjgEOfrgP5-8" target="n366VSGjI_HjgEOfrgP5-3">
          <mxGeometry relative="1" as="geometry" />
        </mxCell>
      </root>
    </mxGraphModel>
  </diagram>
</mxfile>
